<?xml version="1.0" encoding="UTF-8" standalone="no"?>
<!-- Created with Inkscape (http://www.inkscape.org/) -->

<svg
   xmlns:dc="http://purl.org/dc/elements/1.1/"
   xmlns:cc="http://creativecommons.org/ns#"
   xmlns:rdf="http://www.w3.org/1999/02/22-rdf-syntax-ns#"
   xmlns:svg="http://www.w3.org/2000/svg"
   xmlns="http://www.w3.org/2000/svg"
   xmlns:sodipodi="http://sodipodi.sourceforge.net/DTD/sodipodi-0.dtd"
   xmlns:inkscape="http://www.inkscape.org/namespaces/inkscape"
   width="31682.914"
   height="48401.805"
   id="svg2"
   version="1.1"
   inkscape:version="0.48.2 r9819"
   sodipodi:docname="logo.svg">
  <defs
     id="defs4" />
  <sodipodi:namedview
     id="base"
     pagecolor="#ffffff"
     bordercolor="#666666"
     borderopacity="1.0"
     inkscape:pageopacity="0.17254902"
     inkscape:pageshadow="2"
     inkscape:zoom="0.01"
     inkscape:cx="14771.959"
     inkscape:cy="24620.496"
     inkscape:document-units="px"
     inkscape:current-layer="layer11"
     showgrid="false"
     inkscape:window-width="1440"
     inkscape:window-height="787"
     inkscape:window-x="1"
     inkscape:window-y="0"
     inkscape:window-maximized="0"
     inkscape:showpageshadow="false"
     showborder="true"
     showguides="true"
     inkscape:guide-bbox="true"
     inkscape:object-nodes="false"
     inkscape:snap-smooth-nodes="false"
     inkscape:snap-nodes="true"
     inkscape:snap-bbox="false"
     fit-margin-top="0"
     fit-margin-left="0"
     fit-margin-right="0"
     fit-margin-bottom="0" />
  <metadata
     id="metadata7">
    <rdf:RDF>
      <cc:Work
         rdf:about="">
        <dc:format>image/svg+xml</dc:format>
        <dc:type
           rdf:resource="http://purl.org/dc/dcmitype/StillImage" />
        <dc:title></dc:title>
      </cc:Work>
    </rdf:RDF>
  </metadata>
  <g
     inkscape:groupmode="layer"
     id="layer2"
     inkscape:label="head"
     style="display:inline"
     transform="translate(-227786.74,49866.879)">
    <path
       style="fill:none;stroke:#000000;stroke-width:714.01617432;stroke-linecap:butt;stroke-linejoin:miter;stroke-opacity:1"
       d="m 230118.99,-35090.09 c 0,0 902.77,-4109.387 2167.48,-6757.673 1264.68,-2648.242 3374.15,-5606.946 6375.26,-6502.635 3001.11,-895.733 5058.37,-1430.977 8032.68,-1020.016 2974.33,410.959 7386.94,1498.406 9434.84,3570.081 2047.87,2071.673 2476.28,5024.709 2805.63,7267.659 329.35,2242.946 147.7,4397.402 -127.63,5737.655 -274.89,1340.208 -1068.36,1881.699 -1147.34,4972.588 -79.42,3090.886 -153.07,7125.255 -510.08,10455.25 -357.44,3329.991 -3312.14,5870.773 -6885.33,7012.663 -3573.66,1141.8456 -5844.22,1992.373 -8669.95,2167.5319 -2825.72,175.1565 -5071.74,973.0686 -8033.13,-765.0239 -2961.38,-1738.095 -4553.64,-6284.459 -4207.34,-8287.676 346.3,-2003.218 -468.12,-1602.475 -382.9,-2932.554 85.26,-1330.078 1051.41,-8545.659 892.97,-9180.239 l -510.07,-1912.537 765.35,-1274.967 z"
       id="path3595"
       inkscape:connector-curvature="0"
       sodipodi:nodetypes="czzzzzzzzzzzzzcccc" />
  </g>
  <g
     inkscape:groupmode="layer"
     id="layer3"
     inkscape:label="eyebrow-L"
     style="display:inline"
     transform="translate(-227786.74,49866.879)">
    <path
       style="color:#000000;fill:#271f12;fill-opacity:1;fill-rule:nonzero;stroke:none;stroke-width:1px;marker:none;visibility:visible;display:inline;overflow:visible;enable-background:accumulate"
       d="m 238549.73,-31318.345 c -1012.59,-280.072 -510.54,-1128.1 2075.55,-1686.773 867.08,-187.342 -157.09,244.058 404.32,0.893 265.06,-114.69 2431.64,-1423.929 2893.1,-1555.44 1703.81,696.522 2411.14,968.83 4093.99,1620.637 -1368.69,-167.704 -2477.65,119.777 -3290.29,179.173 -872.89,63.771 -5303.8,1984.074 -6176.67,1441.421 z"
       id="path4463"
       inkscape:connector-curvature="0"
       sodipodi:nodetypes="cssccscc" />
  </g>
  <g
     inkscape:groupmode="layer"
     id="layer4"
     inkscape:label="eyebrow-R"
     style="display:inline"
     transform="translate(-227786.74,49866.879)">
    <path
       style="color:#000000;fill:#271f12;fill-opacity:1;fill-rule:nonzero;stroke:none;stroke-width:1px;marker:none;visibility:visible;display:inline;overflow:visible;enable-background:accumulate"
       d="m 229849.42,-30550.734 767.59,-511.77 c 1253.54,490.44 2393.74,350.85 3667.81,426.492 -1407.96,-1124.979 -2363.84,-1021.758 -3582.59,-1279.384 -2673.98,263.338 -1619.48,1351.321 -852.81,1364.662 z"
       id="path4465"
       inkscape:connector-curvature="0"
       sodipodi:nodetypes="ccccc" />
  </g>
  <g
     inkscape:groupmode="layer"
     id="layer5"
     inkscape:label="noes"
     style="display:inline"
     transform="translate(-227786.74,49866.879)">
    <path
       style="fill:#613d30;stroke:#000000;stroke-width:44.62601089px;stroke-linecap:butt;stroke-linejoin:miter;stroke-opacity:1"
       d="m 234028.64,-27565.43 c 152.19,-1363.906 -1429.79,2727.63 -938.03,4008.797 285.63,743.65 929.12,973.028 1961.77,1364.665 785.87,64.707 1166.06,-526.722 1791.29,-597.052 625.22,-70.33 1108.51,519.581 1620.37,341.167 -323.55,-864.363 -1693.56,-658.01 -2132.23,-767.614 -483.29,271.551 -967.05,422.878 -1450.35,255.888 -329.8,-244.596 -841.21,-382.134 -1023.27,-767.658 -547.11,-1157.911 -10.7,-2213.137 170.45,-3838.193 z"
       id="path3137"
       inkscape:connector-curvature="0"
       sodipodi:nodetypes="saczcccas" />
  </g>
  <g
     inkscape:groupmode="layer"
     id="layer11"
     inkscape:label="beard-dark"
     style="display:inline"
     transform="translate(-227786.74,49866.879)">
    <path
       style="color:#000000;fill:#15100a;fill-opacity:1;fill-rule:nonzero;stroke:none;stroke-width:1px;marker:none;visibility:visible;display:inline;overflow:visible;enable-background:accumulate"
       d="m 255514.73,-30819.916 c 282.49,1078.61 752.4,2344.561 1247.3,3635.682 472.15,1893.391 979.55,3230.565 1234.37,4906.985 240.98,1613.096 299,3134.709 85.23,4520.571 l -768.02,2729.371 c 199.94,2730.799 -498.47,3814.944 -1193.75,5202.9015 -2117.93,3252.2546 -4820.92,5885.2803 -7847.02,7094.4652 -8889.05,2266.06395 -11467.12,950.0875 -14026.41,170.6052 -3586.13,-1245.1994 -5017.3,-3497.1172 -5583.16,-6365.9459 -1293.71,-2885.783 -775.15,-5733.994 -767.57,-8172.182 -134.31,-3073.616 99.08,-4477.282 306.59,-4748.028 126.72,-1563.74 556.49,-2535.652 1135.28,-4099.392 178.5,3727.254 -201.72,5994.21 255.71,6482.331 l 256.14,2644.091 c 515.44,128.3 1319.61,1411.029 2047,2388.205 1990.33,3194.51 3638.82,2162.264 5629.14,426.491 876,4498.4806 3922.17,1968.899 6568.06,-170.604 1960.4,-447.511 3667.8,-1316.959 4946.78,-2899.978 2031.38,-1344.671 4464.84,-1750.454 5885.27,-4520.57 740.35,-2728.122 284.73,-6060.702 589.06,-9224.999 z"
       id="path4605"
       inkscape:connector-curvature="0"
       sodipodi:nodetypes="cccccccccccccccccccc" />
  </g>
  <g
     inkscape:groupmode="layer"
     id="layer8"
     inkscape:label="beard-shadow"
     style="display:inline"
     transform="translate(-227786.74,49866.879)">
    <path
       style="color:#000000;fill:#babab2;fill-opacity:1;fill-rule:nonzero;stroke:none;stroke-width:1px;marker:none;visibility:visible;display:inline;overflow:visible;enable-background:accumulate"
       d="m 229836.03,-23919.531 -1087.08,7775.414 3923.52,4947.017 5714.36,1364.6619 c 751.96,-540.1979 3975.73,-1080.3509 6141.44,-1620.5489 6620.72,-3792.542 9616.02,-8021.08 11343.93,-11002.855 281.14,-3298.397 -1215.18,-6819.032 852.8,-9894.078 l -597.1,-2217.6 -1193.74,3838.194 c 764.88,2988.381 -248.56,7931.382 -1194.19,9723.473 -653.77,492.672 -605.15,-654.441 -597.1,-1705.874 -491.34,4331.221 -3869.09,4909.71 -6482.38,6482.285 -739.01,986.057 -1059.87,1345.654 -1798.87,93.314 -738.54,653.903 -1493.18,1726.312 -1783.69,2380.215 -629.68,236.431 -3945.39,2867.893 -5799.61,-620.166 -3377.28,2168.066 -5793.8,-137.627 -6792.06,-2926.842 -998.74,-2789.171 -578.82,-6061.863 -650.23,-6616.61 z"
       id="path4537"
       inkscape:connector-curvature="0"
       sodipodi:nodetypes="cccccccccccccccsc" />
  </g>
  <g
     inkscape:groupmode="layer"
     id="layer10"
     inkscape:label="beard-middle"
     style="display:inline"
     transform="translate(-227786.74,49866.879)">
    <path
       style="fill:#291f15;stroke:none"
       d="m 229593.28,-26541.933 -1279.43,6652.89 c 199.94,2756.282 428.86,5454.37 853.24,7761.712 l 852.81,3667.6343 3241.19,-1705.8753 -682.34,3667.6342 3496.89,-2047.04 -852.78,4349.9651 4349.7,-2644.0912 c 712.67,-277.3049 1162.94,-204.9221 1194.18,426.4472 426.63,524.2656 272.22,1606.7597 511.85,2558.8102 l 1279.44,-4094.0788 c 1362.89,596.9616 2456.65,1848.588 7079.47,-597.0512 l 170.48,-4880.3455 c 2303.13,-1584.803 4605.84,-3077.187 6908.98,-5866.67 2113.94,-3234.405 -577.45,-7216.605 -1045.13,-9400.871 421.71,3594.047 945.62,8774.367 -1513.72,7097.946 -1022.82,2552.562 -1237.02,5897.952 -5714.79,5885.278 -2136.26,723.121 -4230.12,1616.579 -6140.99,3241.142 -1134.4,676.175 -1977.84,771.05 -2900.25,1023.543 l -2047,-1364.706 c -1814.94,315.326 -3500.48,1868.043 -6823.32,-2985.258 l -1535.58,-4094.125 z"
       id="path3071"
       inkscape:connector-curvature="0"
       sodipodi:nodetypes="cccccccccccccccccccccccc" />
  </g>
  <g
     inkscape:groupmode="layer"
     id="layer9"
     inkscape:label="beard-light"
     style="display:inline"
     transform="translate(-227786.74,49866.879)">
    <path
       style="fill:#372a1a;stroke:none"
       d="m 229062.68,-18622.96 c 1198.64,2169.451 1968.89,4398.699 4283.2,5898.578 1984.52,1068.748 2781.97,-235.76 3923.51,-852.936 290.97,1346.634 1129.94,2271.376 4350.16,1364.709 2331.27,-1083.075 4662.96,-3263.948 6994.22,-3241.189 1582.89,-720.933 5838.88,-4516.464 5492.13,-6233.987 676.98,841.246 503.84,1031.129 1416.42,-248.298 l 852.81,-4861.736 c 265.98,1681.418 797.92,2996.86 -682.33,7079.382 -1660.54,2448.718 -3800.81,4257.365 -6140.99,5799.953 l -1194.19,2814.695 -2303.14,-255.884 -1876.08,682.331 -1876.98,-852.936 -596.64,2558.8112 c -1649.83,-159.762 -2727.99,-1088.1182 -3923.97,-1705.8752 l 85.68,2729.4167 -511.85,-511.7714 -511.87,597.0501 -1023.28,-1535.2675 -1194.18,767.6135 -341.39,-1364.6647 -1108.96,2217.5998 -938.04,-2473.4845 -3155.5,-2558.81 z"
       id="path3139"
       inkscape:connector-curvature="0"
       sodipodi:nodetypes="cccccccccccccccccccccccccc" />
  </g>
  <g
     inkscape:groupmode="layer"
     id="layer6"
     inkscape:label="mustache-L"
     style="display:inline"
     transform="translate(-227786.74,49866.879)">
    <path
       style="color:#000000;fill:#271f12;fill-opacity:1;fill-rule:nonzero;stroke:none;stroke-width:1px;marker:none;visibility:visible;display:inline;overflow:visible;enable-background:accumulate"
       d="m 236757.97,-20144.928 c 327.57,1441.019 850.14,2608.479 2303.17,2473.53 l 3155.93,767.656 c 817.55,490.352 1028.2,1587.527 938.04,2985.258 242.79,761.363 48.21,1585.249 1791.29,2132.32 699.3,-96.393 1382.97,-130.843 2302.71,-1108.778 0,0 357.02,-902.114 85.25,-1194.148 -465.02,-499.365 -1235.72,464.067 -2047,0 -447.16,-488.431 -868.88,-900.866 -1535.14,-2047.038 l 767.56,-1108.823 c -6048.16,-3640.949 -6508.24,-2963.748 -7761.81,-2899.977 z"
       id="path4467"
       inkscape:connector-curvature="0"
       sodipodi:nodetypes="ccccccacccc" />
  </g>
  <g
     inkscape:groupmode="layer"
     id="layer7"
     inkscape:label="mustache-R"
     style="display:inline"
     transform="translate(-227786.74,49866.879)">
    <path
       style="color:#000000;fill:#271f12;fill-opacity:1;fill-rule:nonzero;stroke:#000000;stroke-width:44.62601089px;stroke-linecap:butt;stroke-linejoin:miter;stroke-miterlimit:4;stroke-opacity:1;stroke-dasharray:none;stroke-dashoffset:0;marker:none;visibility:visible;display:inline;overflow:visible;enable-background:accumulate"
       d="m 234710.98,-20400.815 c 170.48,1080.396 0,2047.085 -511.86,2900.022 l -1364.66,1705.828 c 175.82,1397.51 -781.38,3158.676 -2217.45,3667.634 -1606.54,569.383 -3663.37,-714.373 -2387.96,-1535.268 1014.8,719.549 2369.64,27.221 3240.74,-1023.542 -850.56,-363.345 -995.14,-1088.162 -255.7,-2814.652 1070.14,-1995.452 3746.82,-2438.767 3496.89,-2900.022 z"
       id="path4469"
       inkscape:connector-curvature="0"
       sodipodi:nodetypes="cccscccc" />
  </g>
</svg>
