<?xml version="1.0" standalone="no"?>
<!DOCTYPE svg PUBLIC "-//W3C//DTD SVG 20010904//EN"
 "http://www.w3.org/TR/2001/REC-SVG-20010904/DTD/svg10.dtd">
<svg version="1.0" xmlns="http://www.w3.org/2000/svg"
 width="16.000000pt" height="16.000000pt" viewBox="0 0 16.000000 16.000000"
 preserveAspectRatio="xMidYMid meet">
<metadata>
Created by potrace 1.11, written by Peter Selinger 2001-2013
</metadata>
<g transform="translate(0.000000,16.000000) scale(0.003493,-0.003493)"
fill="#000000" stroke="none">
<path d="M2180 4559 c-52 -10 -108 -21 -125 -24 -87 -17 -288 -81 -350 -111
-195 -95 -367 -287 -503 -559 -52 -105 -121 -286 -153 -405 -7 -25 -14 -49
-15 -55 -45 -155 -56 -218 -57 -335 l-2 -125 -39 -63 c-35 -58 -37 -65 -26
-95 38 -105 52 -229 36 -313 -2 -12 -7 -56 -11 -100 -4 -45 -21 -119 -40 -174
-32 -95 -41 -128 -70 -270 -24 -117 -24 -124 -29 -526 -5 -418 -1 -470 53
-635 17 -52 40 -125 51 -164 67 -221 198 -367 416 -466 115 -51 337 -114 448
-127 77 -9 299 -8 392 1 200 19 543 92 631 133 234 110 471 327 652 598 106
158 149 296 150 476 0 58 8 106 38 205 36 126 38 135 38 285 0 85 -5 184 -10
220 -11 73 -12 274 -2 520 9 208 11 223 53 345 39 112 59 181 69 240 11 68 14
346 4 420 -49 385 -119 584 -260 740 -146 161 -452 289 -864 361 -142 24 -356
26 -475 3z m430 -63 c19 -4 58 -11 85 -16 28 -5 59 -11 70 -14 333 -73 558
-171 684 -297 162 -163 257 -464 267 -854 5 -202 -10 -320 -56 -445 -60 -160
-67 -199 -76 -425 -3 -82 -7 -151 -8 -152 -1 -2 -14 37 -28 85 -14 48 -45 141
-68 207 l-43 120 27 78 c15 44 36 91 47 107 l21 27 -28 101 c-14 56 -31 99
-35 96 -5 -3 -9 -11 -9 -17 0 -7 -22 -83 -50 -169 -47 -151 -49 -160 -39 -214
21 -115 14 -355 -16 -504 -3 -14 -8 -38 -11 -55 -3 -16 -7 -34 -8 -40 -2 -5
-6 -23 -10 -40 -32 -127 -78 -235 -101 -235 -16 0 -37 33 -34 53 1 6 0 30 -1
52 -2 28 -4 33 -7 15 -19 -114 -89 -239 -174 -311 -70 -59 -104 -80 -274 -168
-102 -53 -153 -86 -187 -121 -58 -60 -83 -59 -123 4 l-19 29 -26 -32 c-15 -17
-29 -31 -33 -31 -3 0 -15 13 -26 29 l-20 28 34 49 c19 27 35 51 35 55 0 13
-298 176 -414 226 -85 37 -94 39 -167 52 -40 7 -139 5 -146 -3 -10 -10 43
-142 69 -172 39 -44 57 -54 114 -60 53 -5 286 -59 327 -76 66 -26 105 -150 88
-284 0 -7 -28 -26 -61 -43 -140 -73 -242 -93 -329 -63 -43 15 -106 69 -147
127 -20 28 -23 29 -40 14 -49 -41 -159 -70 -241 -65 -77 5 -178 50 -168 75 4
9 9 43 12 76 5 53 27 99 63 135 83 83 124 190 121 318 -1 38 -3 42 -16 29 -8
-8 -53 -36 -99 -61 -138 -75 -211 -155 -251 -271 -8 -25 -15 -14 -45 74 -41
122 -54 228 -55 428 0 77 -4 136 -8 130 -4 -7 -6 8 -3 33 3 25 10 92 16 149 6
57 13 120 15 140 16 137 16 239 2 295 -15 55 -15 60 1 73 41 32 51 34 106 18
30 -9 107 -18 172 -21 l117 -4 -26 20 c-66 52 -221 99 -316 96 l-50 -1 16 25
c13 20 17 54 18 160 2 118 6 150 34 255 48 177 124 400 165 482 20 40 36 75
36 77 0 10 85 143 130 202 114 155 235 255 372 308 56 23 220 71 273 82 11 2
63 13 115 23 75 15 127 19 250 16 85 -1 171 -6 190 -9z"/>
<path d="M2207 3075 c-53 -30 -100 -55 -104 -55 -3 0 -14 -6 -22 -13 -9 -7
-45 -19 -81 -26 -90 -17 -191 -58 -218 -88 -28 -31 -16 -58 30 -69 69 -15 126
-3 393 81 174 56 285 76 418 76 38 0 67 2 65 3 -7 7 -364 146 -373 146 -6 0
-54 -25 -108 -55z"/>
<path d="M1361 2475 c-14 -33 -40 -101 -46 -125 -22 -82 -28 -115 -30 -175 -4
-103 22 -141 127 -189 71 -32 96 -33 159 0 61 30 86 32 162 9 32 -9 61 -14 64
-11 9 8 -28 47 -54 57 -35 13 -161 21 -167 10 -4 -5 -26 -13 -50 -16 -37 -6
-52 -3 -94 21 -66 37 -86 75 -84 162 1 37 4 78 7 92 16 74 26 151 23 171 -3
22 -4 22 -17 -6z"/>
</g>
</svg>
